# xmcd
#
# Track frame offsets: 
#        150
#        14651
#        25559
#        44674
#        57817
#        75840
#        94207
#        109148
#        127457
#        142808
#
# Disc length: 2171 seconds
#
# Revision: 0
# Processed by: cddbd v1.5.2PL0 Copyright (c) Steve Scherf et al.
# Submitted via: ExactAudioCopy v1.1
#
DISCID=8008790a
DTITLE=S-Tool - Tolerance 0
DYEAR=2017
DGENRE=Hardrock
TTITLE0=Lights out
TTITLE1=Hammering
TTITLE2=There Lies Life
TTITLE3=Back to Zero
TTITLE4=Ain't This What You Wanted
TTITLE5=And You Call Yourself Sane
TTITLE6=Shovel Man
TTITLE7=Your Despiser No.1
TTITLE8=This Is Real
TTITLE9=Until the Lid Closes
EXTD=
EXTT0=
EXTT1=
EXTT2=
EXTT3=
EXTT4=
EXTT5=
EXTT6=
EXTT7=
EXTT8=
EXTT9=
PLAYORDER=
